<?xml version="1.0" encoding="utf-8"?>
<!-- Generator: Adobe Illustrator 24.0.1, SVG Export Plug-In . SVG Version: 6.00 Build 0)  -->
<svg version="1.1" xmlns="http://www.w3.org/2000/svg" xmlns:xlink="http://www.w3.org/1999/xlink" x="0px" y="0px"
	 viewBox="0 0 750 500" style="enable-background:new 0 0 750 500;" xml:space="preserve">
<style type="text/css">
	.st0{fill:#EEEEEE;}
	.st1{fill:none;stroke:#DED8D5;stroke-width:1.9678;stroke-miterlimit:10;}
	.st2{fill:#FFB1A5;}
	.st3{fill:#EAD254;}
	.st4{fill:#00857B;}
	.st5{fill:#EDEDED;}
	.st6{fill:#C98BD2;}
	.st7{fill:none;stroke:#FFFFFF;stroke-width:1.6466;stroke-linecap:round;stroke-linejoin:round;stroke-miterlimit:10;}
	.st8{fill:#FFFFFF;}
	.st9{fill:#56DFED;}
	.st10{fill:none;stroke:#FFFFFF;stroke-width:1.1803;stroke-miterlimit:10;}
	.st11{clip-path:url(#SVGID_2_);}
	.st12{fill:#8E716C;}
	.st13{fill:none;stroke:#282828;stroke-width:1.2333;stroke-linecap:round;stroke-linejoin:round;stroke-miterlimit:10;}
	.st14{fill:#F3978E;}
	.st15{fill:#372F5F;}
	.st16{fill:#261B43;}
	.st17{fill:#E6E6E6;}
	.st18{fill:#282828;}
	.st19{fill:none;stroke:#282828;stroke-width:0.9928;stroke-linecap:round;stroke-linejoin:round;stroke-miterlimit:10;}
	.st20{fill:none;stroke:#282828;stroke-width:1.2316;stroke-linecap:round;stroke-linejoin:round;stroke-miterlimit:10;}
	.st21{fill:none;stroke:#C98BD2;stroke-width:1.3423;stroke-miterlimit:10;}
	.st22{fill:none;stroke:#282828;stroke-width:1.2298;stroke-linecap:round;stroke-linejoin:round;stroke-miterlimit:10;}
	.st23{fill:#005683;}
	.st24{fill:none;stroke:#282828;stroke-width:1.3968;stroke-linecap:round;stroke-linejoin:round;stroke-miterlimit:10;}
	.st25{fill:none;stroke:#282828;stroke-width:1.5317;stroke-linecap:round;stroke-linejoin:round;stroke-miterlimit:10;}
	.st26{fill:none;stroke:#FFFFFF;stroke-width:1.9514;stroke-miterlimit:10;}
</style>
<g id="BACKGROUND">
	<rect x="0.22" class="st0" width="750" height="500"/>
</g>
<g id="OBJECTS">
	<g>
		<g>
			<g>
				<line class="st1" x1="113.22" y1="154.87" x2="612.59" y2="154.87"/>
				<path class="st1" d="M606.07,431.1H119.74c-3.6,0-6.52-2.92-6.52-6.52V128.66c0-3.6,2.92-6.52,6.52-6.52h486.33
					c3.6,0,6.52,2.92,6.52,6.52v295.92C612.59,428.18,609.67,431.1,606.07,431.1z"/>
				<g>
					<path class="st2" d="M146.13,138.84c0,2.52-2.04,4.57-4.57,4.57c-2.52,0-4.57-2.05-4.57-4.57c0-2.52,2.04-4.57,4.57-4.57
						C144.09,134.27,146.13,136.32,146.13,138.84z"/>
					<path class="st3" d="M163.88,138.84c0,2.52-2.05,4.57-4.57,4.57c-2.52,0-4.57-2.05-4.57-4.57c0-2.52,2.05-4.57,4.57-4.57
						C161.84,134.27,163.88,136.32,163.88,138.84z"/>
					<path class="st4" d="M181.64,138.84c0,2.52-2.05,4.57-4.57,4.57c-2.52,0-4.57-2.05-4.57-4.57c0-2.52,2.04-4.57,4.57-4.57
						C179.59,134.27,181.64,136.32,181.64,138.84z"/>
				</g>
			</g>
		</g>
		<g>
			<g>
				<g>
					<g>
						<path class="st5" d="M677.46,265.13H560.1c-3.31,0-5.99-2.68-5.99-5.99V150.6c0-3.31,2.68-5.99,5.99-5.99h117.36
							c3.31,0,5.99,2.68,5.99,5.99v108.54C683.45,262.45,680.77,265.13,677.46,265.13z"/>
						<path class="st1" d="M677.46,265.13H560.1c-3.31,0-5.99-2.68-5.99-5.99V150.6c0-3.31,2.68-5.99,5.99-5.99h117.36
							c3.31,0,5.99,2.68,5.99,5.99v108.54C683.45,262.45,680.77,265.13,677.46,265.13z"/>
					</g>
				</g>
			</g>
			<g>
				<g>
					<g>
						<g>
							<path class="st6" d="M588.47,233.78h61c3.33,0,6.02-2.7,6.02-6.02v-49.99c0-3.33-2.7-6.02-6.02-6.02h-61
								c-3.33,0-6.02,2.7-6.02,6.02v49.99C582.45,231.08,585.15,233.78,588.47,233.78z"/>
						</g>
					</g>
				</g>
				<g>
					<polygon class="st7" points="635.63,213.08 607.08,213.08 601.93,213.08 601.93,190.47 635.63,190.47 635.63,196.12 					"/>
					<polyline class="st7" points="601.93,190.47 618.78,203.75 635.63,190.47 					"/>
				</g>
			</g>
		</g>
		<g>
			<g>
				<g>
					<g>
						<path class="st5" d="M160.99,356.02H49.07c-3.16,0-5.71-2.56-5.71-5.71v-97.58c0-3.16,2.56-5.71,5.71-5.71h111.93
							c3.16,0,5.71,2.56,5.71,5.71v97.58C166.71,353.46,164.15,356.02,160.99,356.02z"/>
						<path class="st1" d="M160.99,356.02H49.07c-3.16,0-5.71-2.56-5.71-5.71v-97.58c0-3.16,2.56-5.71,5.71-5.71h111.93
							c3.16,0,5.71,2.56,5.71,5.71v97.58C166.71,353.46,164.15,356.02,160.99,356.02z"/>
					</g>
				</g>
			</g>
			<g>
				<path class="st2" d="M133.76,335.02H75.72c-3.67,0-6.64-2.97-6.64-6.64v-56.06c0-3.67,2.97-6.64,6.64-6.64h58.05
					c3.67,0,6.64,2.97,6.64,6.64v56.06C140.4,332.05,137.43,335.02,133.76,335.02z"/>
				<g>
					<path class="st8" d="M90.92,286.74c-7.83,7.83-7.83,20.69,0,28.52c7.83,7.83,20.69,7.83,28.52,0c7.83-7.83,7.83-20.69,0-28.52
						C111.6,278.91,98.75,278.91,90.92,286.74z M119.39,289.64h-6.43c-0.64-2.02-1.47-4.04-2.5-6.06
						C114.02,284.66,117.12,286.81,119.39,289.64z M97.77,299.82c0-2.61,0.31-5.21,0.96-7.82h12.9c0.64,2.61,0.95,5.21,0.96,7.82
						H97.77z M112.5,302.18c-0.18,2.61-0.65,5.21-1.39,7.82H99.23c-0.74-2.61-1.21-5.21-1.39-7.82H112.5z M105.18,282.8
						c0.97,0,1.92,0.08,2.85,0.22c1.24,2.21,2.2,4.41,2.92,6.62H99.4c0.72-2.21,1.69-4.41,2.92-6.62
						C103.25,282.88,104.21,282.8,105.18,282.8z M99.89,283.58c-1.02,2.02-1.85,4.04-2.5,6.06h-6.43
						C93.23,286.81,96.33,284.66,99.89,283.58z M89.36,292h7.36c-0.65,2.61-0.98,5.21-1.03,7.82h-8.67
						C87.2,296.99,88.03,294.33,89.36,292z M89.36,309.99c-1.33-2.33-2.16-4.99-2.34-7.82h8.7c0.13,2.61,0.54,5.21,1.23,7.82H89.36z
						 M90.96,312.35h6.69c0.67,2.04,1.5,4.09,2.49,6.13C96.47,317.43,93.28,315.25,90.96,312.35z M105.18,319.19
						c-0.81,0-1.6-0.05-2.38-0.15c-1.11-2.23-2.06-4.46-2.82-6.68h10.41c-0.76,2.23-1.71,4.46-2.82,6.68
						C106.78,319.14,105.98,319.19,105.18,319.19z M110.22,318.48c0.99-2.04,1.82-4.09,2.49-6.13h6.69
						C117.07,315.25,113.88,317.43,110.22,318.48z M120.99,309.99h-7.59c0.69-2.61,1.1-5.21,1.23-7.82h8.7
						C123.15,305.01,122.32,307.66,120.99,309.99z M123.33,299.82h-8.67c-0.05-2.61-0.39-5.21-1.03-7.82h7.36
						C122.32,294.33,123.15,296.99,123.33,299.82z"/>
				</g>
			</g>
		</g>
		<g>
			<path class="st6" d="M154.32,93.63H52.92c-2.09,0-3.79-1.7-3.79-3.79l0,0c0-2.09,1.7-3.79,3.79-3.79h101.4
				c2.09,0,3.79,1.7,3.79,3.79l0,0C158.12,91.93,156.42,93.63,154.32,93.63z"/>
			<path class="st9" d="M681.59,341.31h-49.22c-2.09,0-3.79-1.7-3.79-3.79l0,0c0-2.09,1.7-3.79,3.79-3.79h49.22
				c2.09,0,3.79,1.7,3.79,3.79l0,0C685.39,339.61,683.69,341.31,681.59,341.31z"/>
			<path class="st6" d="M647.12,385.19h-6.01c-1.58,0-2.86-1.28-2.86-2.86v-5.65c0-1.58,1.28-2.86,2.86-2.86h6.01
				c1.58,0,2.86,1.28,2.86,2.86v5.65C649.99,383.91,648.71,385.19,647.12,385.19z"/>
			<path class="st2" d="M77.08,411.47h-6.01c-1.58,0-2.86-1.28-2.86-2.86v-5.65c0-1.58,1.28-2.86,2.86-2.86h6.01
				c1.58,0,2.86,1.28,2.86,2.86v5.65C79.94,410.19,78.66,411.47,77.08,411.47z"/>
			<g>
				<g>
					<path class="st2" d="M537.35,89.71H437.27c-1.66,0-3.01-1.35-3.01-3.01V62.26c0-1.66,1.35-3.01,3.01-3.01h100.08
						c1.66,0,3.01,1.35,3.01,3.01V86.7C540.36,88.36,539.02,89.71,537.35,89.71z"/>
					<g>
						<line class="st10" x1="448.71" y1="70.1" x2="519.89" y2="70.1"/>
						<line class="st10" x1="448.71" y1="77.41" x2="477.7" y2="77.41"/>
					</g>
				</g>
				<polygon class="st2" points="445.81,86.26 445.81,98.13 460.74,86.26 				"/>
			</g>
			<g>
				<g>
					<g>
						<g>
							<g>
								<g>
									<path class="st9" d="M291.46,91.52h-48.45c-4.71,0-8.52-3.81-8.52-8.52V37.96c0-3.57,2.89-6.46,6.46-6.46h50.51
										c3.57,0,6.46,2.89,6.46,6.46v47.1C297.92,88.63,295.03,91.52,291.46,91.52z"/>
								</g>
							</g>
						</g>
					</g>
				</g>
				<g>
					<path class="st8" d="M281.01,65.95l-3.61-3.61c-0.64-0.71-1.48-1.1-2.32-1.1c-0.84,0-1.68,0.39-2.32,1.03l-2.06,2.06
						c-0.13-0.06-0.26-0.13-0.39-0.19c-0.26-0.13-0.45-0.19-0.65-0.32c-1.93-1.23-3.68-2.84-5.35-4.9
						c-0.77-0.97-1.35-1.87-1.68-2.64c0.52-0.45,0.97-0.97,1.42-1.42c0.19-0.19,0.39-0.39,0.58-0.58c0.71-0.71,1.1-1.55,1.1-2.39
						c0-0.84-0.39-1.68-1.1-2.39l-1.81-1.81c-0.19-0.19-0.39-0.39-0.58-0.64c-0.39-0.39-0.84-0.84-1.23-1.23
						c-0.64-0.64-1.48-1.03-2.32-1.03c-0.84,0-1.61,0.32-2.32,1.03l-2.26,2.26c-0.84,0.84-1.35,1.93-1.48,3.16
						c-0.13,1.93,0.39,3.74,0.84,4.9c1.03,2.97,2.64,5.61,5.03,8.45c2.9,3.42,6.32,6.13,10.32,8.06c1.48,0.71,3.55,1.55,5.8,1.74
						c0.13,0,0.26,0,0.45,0c1.55,0,2.84-0.58,3.87-1.68c0,0,0,0,0.06-0.06c0.32-0.39,0.71-0.77,1.16-1.16
						c0.26-0.26,0.58-0.58,0.84-0.84C282.36,69.24,282.36,67.3,281.01,65.95z M279.52,69.3c-0.26,0.26-0.52,0.52-0.77,0.77
						c-0.45,0.39-0.84,0.84-1.29,1.29c-0.65,0.65-1.35,0.97-2.32,0.97c-0.13,0-0.19,0-0.32,0c-1.93-0.13-3.74-0.9-5.03-1.55
						c-3.68-1.81-6.9-4.32-9.61-7.55c-2.19-2.64-3.68-5.16-4.71-7.8c-0.64-1.55-0.9-2.77-0.77-4c0.06-0.71,0.32-1.35,0.9-1.87
						l2.19-2.19c0.19-0.19,0.52-0.45,0.9-0.45c0.39,0,0.64,0.19,0.9,0.45c0.39,0.39,0.77,0.77,1.16,1.16
						c0.19,0.19,0.39,0.45,0.64,0.65l1.81,1.81c0.19,0.19,0.45,0.58,0.45,0.9c0,0.39-0.26,0.71-0.45,0.9
						c-0.19,0.19-0.39,0.39-0.58,0.58c-0.58,0.58-1.1,1.1-1.61,1.61c0,0,0,0-0.06,0.06c-0.64,0.64-0.52,1.23-0.39,1.61v0.06
						c0.45,1.16,1.16,2.19,2.13,3.48c1.81,2.26,3.74,4,5.87,5.35c0.26,0.19,0.58,0.32,0.84,0.45c0.26,0.13,0.45,0.19,0.64,0.32
						l0.06,0.06c0.64,0.32,1.29,0.19,1.81-0.32l2.26-2.26c0.19-0.19,0.52-0.45,0.9-0.45c0.32,0,0.64,0.26,0.84,0.45l3.61,3.61
						C280.1,68.01,280.1,68.66,279.52,69.3z"/>
				</g>
			</g>
		</g>
		<g>
			<defs>
				<rect id="SVGID_1_" x="159.22" y="97.61" width="459.27" height="332.68"/>
			</defs>
			<clipPath id="SVGID_2_">
				<use xlink:href="#SVGID_1_"  style="overflow:visible;"/>
			</clipPath>
			<g class="st11">
				<g>
					<g>
						<path class="st12" d="M502.21,318.78l-36.5-4.86l0.29,3.62l-31.21,4.16c0,0-20.12,50.47-2.39,161.46h25.39l9.14-112.55h3.24
							l8.85,112.55h25.39C522.13,372.17,502.21,318.78,502.21,318.78z"/>
						<line class="st13" x1="455.31" y1="370.61" x2="481.8" y2="370.61"/>
					</g>
					<g>
						<g>
							<g>
								<g>
									<path class="st2" d="M523.52,265.54c-3.12-4.98-20.66-4.81-21.59-4.92c-4.74-0.56,3.04,37.18,12.91,70.17
										c1.89,6.32,8.85,9.62,14.93,7.04c0.07-0.03,0.13-0.06,0.2-0.08c4.81-2.04,7.54-7.14,6.58-12.27
										C531.85,300.58,527.13,271.3,523.52,265.54z"/>
								</g>
								<polygon class="st14" points="527.7,279.18 505.31,287.87 503.21,277.25 526.4,271.46 								"/>
								<path class="st14" d="M531.93,300.44c0,0-10.61,14.25-10.1,13.59c0.51-0.66,8.32-23.03,8.32-23.03L531.93,300.44z"/>
							</g>
							<g>
								<path class="st2" d="M547.1,281.29l-30.41,39.4c-3.99,5.17-2.72,12.65,2.76,16.21h0c5.47,3.55,12.81,1.68,15.92-4.05
									l25.31-46.7L547.1,281.29z"/>
								<g>
									<path class="st2" d="M554.98,291.41c-6.59-2.13-10.21-9.2-8.08-15.79c2.13-6.59,9.2-10.21,15.79-8.08
										c6.59,2.13,10.21,9.2,8.08,15.79C568.64,289.92,561.57,293.54,554.98,291.41z"/>
									<path class="st2" d="M567.98,271.93c0,0,3.43-3.56-2.66-6.06c-6.09-2.5-13.62-1.93-18.43,9.75L567.98,271.93z"/>
								</g>
								<g>
									<path class="st15" d="M574.29,247.03l12.73,5.52c0.71,0.31,0.97,1.15,0.58,1.88l-16.75,31.29
										c-0.39,0.73-1.28,1.07-1.99,0.76l-12.73-5.52c-0.71-0.31-0.97-1.15-0.58-1.88l16.75-31.29
										C572.69,247.06,573.58,246.72,574.29,247.03z"/>
									<path class="st16" d="M573.07,246.47l12.73,5.52c0.71,0.31,0.97,1.15,0.58,1.88l-16.75,31.29
										c-0.39,0.73-1.28,1.07-1.99,0.76l-12.73-5.52c-0.71-0.31-0.97-1.15-0.58-1.88l16.75-31.29
										C571.47,246.51,572.36,246.17,573.07,246.47z"/>
									<polygon class="st17" points="571.64,249.66 582.82,254.51 569.17,280.01 557.98,275.16 									"/>
									<polygon class="st8" points="582.82,254.51 557.98,275.16 571.64,249.66 									"/>
								</g>
								<path class="st2" d="M561.67,264.83c0,0,2.84,0.55,5.39,2c1.13,0.64,1.7,1.94,1.39,3.2l0,0c-0.29,1.15-1.25,2-2.42,2.15
									l-6.62,0.83c0,0-3.45,5.95-7.97,6.62l4.14-10.45L561.67,264.83z"/>
							</g>
						</g>
						<g>
							<g>
								<path class="st9" d="M477.12,215.92c-0.73,0,46.95,6.6,54.81,60.95l-24.74,3.79l-4.99,41.04h-69.02l-13.7-75.82
									c0,0,15.29-21.91,43.68-29.96H477.12z"/>
								<line class="st13" x1="507.19" y1="280.66" x2="509.34" y2="256.93"/>
							</g>
						</g>
					</g>
					<g>
						<path class="st2" d="M481.65,216.69v-18.88h-22.13v19.1c-1.13,0.34-3.02,1.02-5.94,2.41l17.26,10.28l17.64-10.28
							C488.48,219.33,485.68,217.7,481.65,216.69z"/>
						<path class="st18" d="M459.32,200.12c0,0,3.97,10.55,14.58,9.64c9.75-0.84,8.2-15.46,8.2-15.46L459.32,200.12z"/>
						<g>
							<path class="st14" d="M449.67,186.09c-3.47,3.15-11.22-8.79-7.87-12.14c3.35-3.35,5.91,1.91,5.91,1.91l1.5,3.56l1.13,4.82
								l0.27,1.26L449.67,186.09z"/>
							<g>
								<g>
									<path class="st19" d="M443.42,178.18c0,0,2.63-1.18,4.96,2.62"/>
								</g>
							</g>
						</g>
						<g>
							<path class="st14" d="M490.68,185.73c3.19,3.43,11.93-7.81,8.87-11.43c-3.06-3.62-6.05,1.4-6.05,1.4l-1.79,3.42l-1.53,4.71
								l-0.37,1.24L490.68,185.73z"/>
							<g>
								<g>
									<path class="st19" d="M497.58,178.37c0,0-2.52-1.4-5.16,2.2"/>
								</g>
							</g>
						</g>
						<g>
							<path class="st18" d="M443.59,162.57c0,15.79,12.04,23.28,26.9,23.28s26.9-7.49,26.9-23.28c0-15.79-12.04-26.54-26.9-26.54
								S443.59,146.78,443.59,162.57z"/>
						</g>
						<path class="st2" d="M447.24,163.67c0,9.7,1.37,18.06,2.74,24c1.34,5.81,5.11,9.88,10.43,13.15l0.97,0.6
							c5.63,3.46,12.91,3.54,18.63,0.21l0,0c5.77-3.36,9.81-7.8,11.05-14.04c2.26-11.35,2.51-23.91,2.51-23.91s2.15-24.48-22.83-24
							C445.75,140.14,447.24,163.67,447.24,163.67z"/>
						<g>
							<path class="st20" d="M468.89,177.64v3.39c0,0.2,0.04,0.39,0.11,0.57c0.28,0.69,1.08,1.02,1.8,0.83l1.55-0.41"/>
							<path class="st18" d="M464.92,164.5l-12.42,2.91c0,0,0.56-3.16,5.64-4.31C463.23,161.96,464.92,164.5,464.92,164.5z"/>
							<path class="st18" d="M475.94,164.5l11.99,2.91c0,0-0.55-3.16-5.45-4.31C477.57,161.96,475.94,164.5,475.94,164.5z"/>
							<ellipse class="st18" cx="460.2" cy="173.62" rx="2.09" ry="2.09"/>
							<path class="st18" d="M482.15,173.62c0,1.15-0.94,2.09-2.09,2.09c-1.16,0-2.09-0.94-2.09-2.09s0.94-2.09,2.09-2.09
								C481.21,171.54,482.15,172.47,482.15,173.62z"/>
							<path class="st8" d="M462.3,186.37h16.15C478.44,186.37,471.29,195.07,462.3,186.37z"/>
							<g>
								
									<ellipse transform="matrix(0.7071 -0.7071 0.7071 0.7071 11.1877 375.8797)" class="st21" cx="459.32" cy="174.44" rx="8.9" ry="8.9"/>
								
									<ellipse transform="matrix(0.7071 -0.7071 0.7071 0.7071 17.595 391.3483)" class="st21" cx="481.2" cy="174.44" rx="8.9" ry="8.9"/>
								<path class="st21" d="M468.23,174.44c0,0,2.11-1.97,4.07,0"/>
								<line class="st21" x1="450.42" y1="174.44" x2="447.61" y2="174.36"/>
								<line class="st21" x1="490.1" y1="174.44" x2="492.92" y2="174.36"/>
							</g>
						</g>
						<path class="st18" d="M493.25,171.78c0,0-9.99-13.5-7.69-27.19c0,0,7.41,3.73,9.35,13.36
							C496.84,167.59,493.25,171.78,493.25,171.78z"/>
						<path class="st18" d="M447.23,172.7c0,0,11.6-15.34,9.3-29.02c0,0-8.05,4.65-9.98,14.28
							C444.62,167.59,447.23,172.7,447.23,172.7z"/>
						<path class="st18" d="M492.41,149.99c0,0-12.83,14.04-47.92,11.64c0,0,5.37-20.61,22.38-22.8
							C466.87,138.82,486.51,136.48,492.41,149.99z"/>
						
							<ellipse transform="matrix(0.1594 -0.9872 0.9872 0.1594 281.3258 597.518)" class="st18" cx="491.51" cy="133.57" rx="16.76" ry="16.76"/>
					</g>
				</g>
				<g>
					<path class="st18" d="M286.97,318.74l-31.21-4.16l0.28-3.63l-36.5,4.86c0,0-19.92,53.39-2.19,164.38h25.39l8.85-112.55h3.24
						l9.14,112.55h25.39C307.09,369.21,286.97,318.74,286.97,318.74z"/>
					<g>
						<path class="st18" d="M284.48,166.9c-4.22-4.97-7.61-10.77-10.48-18.9c-3.09-8.73-13.19-5.18-13.19-5.18
							s-8.42-10.83-21.09-7.06c-12.67,3.77-17.07,12.79-17.33,23.51c-0.26,10.72-8.69,12.39-15.18,24.79
							c-11.46,21.89,7.83,40.33,42.96,35.21l0.05-0.34c3.46,1.05,7.7,1.51,12.87,1.2C305.29,217.62,301.22,186.58,284.48,166.9z"/>
						<g>
							<path class="st14" d="M270.66,183.13c3.47,3.15,11.22-8.79,7.87-12.14c-3.35-3.35-5.91,1.91-5.91,1.91l-1.5,3.56l-1.13,4.82
								l-0.27,1.26L270.66,183.13z"/>
							<g>
								<g>
									<path class="st19" d="M276.92,175.22c0,0-2.63-1.18-4.96,2.62"/>
								</g>
							</g>
						</g>
						<g>
							<path class="st14" d="M229.65,182.77c-3.19,3.43-11.93-7.81-8.87-11.43c3.06-3.62,6.05,1.4,6.05,1.4l1.79,3.42l1.53,4.71
								l0.37,1.24L229.65,182.77z"/>
							<g>
								<g>
									<path class="st19" d="M222.75,175.41c0,0,2.52-1.4,5.16,2.2"/>
								</g>
							</g>
						</g>
						<g>
							<path class="st18" d="M276.75,159.61c0,15.79-12.04,23.28-26.9,23.28s-26.9-7.49-26.9-23.28s12.04-26.54,26.9-26.54
								S276.75,143.82,276.75,159.61z"/>
						</g>
						<rect x="238.68" y="194.85" class="st2" width="22.13" height="28.65"/>
						<path class="st18" d="M235.46,193.07c0,0,6.16,12.29,13.74,14.21c2.02,0.51,4.19,0.34,6.14-0.35
							c2.85-1.01,6.47-5.26,7.08-9.97l0.29-2.69C262.7,194.27,249.21,201.61,235.46,193.07z"/>
						<path class="st2" d="M273.09,160.71c0,9.7-1.37,18.06-2.74,24c-1.34,5.81-5.11,9.88-10.43,13.15l-0.97,0.6
							c-5.63,3.46-12.91,3.54-18.63,0.21v0c-5.77-3.36-9.81-7.8-11.05-14.04c-2.26-11.35-2.51-23.91-2.51-23.91
							s-2.15-24.48,22.83-24S273.09,160.71,273.09,160.71z"/>
						<g>
							<path class="st22" d="M248.18,176v2.01c0,0.2,0.04,0.39,0.11,0.57c0.28,0.69,1.08,1.02,1.8,0.83l1.55-0.41"/>
							<path class="st18" d="M253.39,162.74l13.29,3.15c0,0-0.6-3.42-6.04-4.66S253.39,162.74,253.39,162.74z"/>
							<path class="st18" d="M246.41,162.74l-13.46,3.15c0,0,0.61-3.42,6.12-4.66C244.57,159.98,246.41,162.74,246.41,162.74z"/>
							<path class="st18" d="M241.59,170.99c0,1.15-0.94,2.08-2.09,2.08c-1.16,0-2.09-0.93-2.09-2.08c0-1.15,0.94-2.08,2.09-2.08
								C240.65,168.9,241.59,169.84,241.59,170.99z"/>
							<path class="st18" d="M261.44,170.99c0,1.15-0.94,2.08-2.09,2.08s-2.09-0.93-2.09-2.08c0-1.15,0.94-2.08,2.09-2.08
								S261.44,169.84,261.44,170.99z"/>
							<path class="st8" d="M240.2,182.89h18.38c0,0-1.3,5.05-9.63,5.05C242.6,187.94,240.2,182.89,240.2,182.89z"/>
						</g>
						<path class="st18" d="M227.08,168.82c0,0,9.99-13.5,7.69-27.19c0,0-7.41,3.73-9.35,13.36
							C223.49,164.63,227.08,168.82,227.08,168.82z"/>
						<path class="st18" d="M273.11,168.38c0,0-11.6-13.97-9.3-27.65c0,0,8.05,4.65,9.98,14.28
							C275.72,164.63,273.11,168.38,273.11,168.38z"/>
						<path class="st18" d="M227.92,147.03c0,0,11.46,15.41,46.56,13c0,0-4.01-21.97-21.02-24.16
							C253.46,135.87,233.82,133.52,227.92,147.03z"/>
					</g>
					<g>
						<g>
							<g>
								<path class="st2" d="M195.93,386.51c-0.51,0.8,29.21-129.3,20.39-127.34c-0.81,0.18-16.26,1.61-18.55,6.28
									c-6.66,13.54-11.43,120.07-11.43,120.07L195.93,386.51z"/>
								<path class="st2" d="M186.33,385.52c0,0-4.79,22.22,13.32,24.65c1.19,0.16,2.35-0.54,2.74-1.68l0.05-0.15
									c0.43-1.26-0.2-2.6-1.41-3.14c-2.95-1.32-7.53-4.66-5.26-12.23c0,0,2.62-0.32,4.06,4.56c0.37,1.26,1.78,1.89,2.95,1.3l0,0
									c0.8-0.4,1.25-1.26,1.14-2.15c-0.43-3.42-2.15-11.65-8.75-13.86L186.33,385.52z"/>
							</g>
							<path class="st14" d="M192.42,296.72c0,0,17.12,24.11,17.21,23.65c0.09-0.47,5.99-33.86,5.99-33.86l-20.78-9L192.42,296.72z"
								/>
						</g>
						<g>
							<path class="st4" d="M240,218.79c0.73,0-42.32,0.77-50.19,55.12l24.74,3.79l4.99,41.04h69.02l13.7-75.82
								c0,0-9.74-16.43-38.13-24.47L240,218.79z"/>
							<path class="st2" d="M218.96,225.36c0,0,6.08,8.08,31.01,8.08c24.7,0,31.01-8.5,31.01-8.5s-14.56-8.13-31.45-10.77
								C249.53,214.17,234.45,216.86,218.96,225.36z"/>
						</g>
					</g>
				</g>
				<g>
					<g>
						<g>
							<polygon class="st23" points="303.66,397.56 303.72,505.97 357.35,505.97 361.47,397.56 							"/>
							<polygon class="st23" points="420.1,397.56 420.04,505.97 366.41,505.97 362.29,397.56 							"/>
							<rect x="335.36" y="397.56" class="st23" width="55.45" height="37.66"/>
						</g>
						<line class="st24" x1="343.11" y1="435.22" x2="381.35" y2="435.22"/>
					</g>
					<g>
						<g>
							<g>
								<path class="st2" d="M453.98,302.96c3.33,36.73-0.18,63.5,0.79,131.09l-32.01,1.34l-4.77-126.52L453.98,302.96z"/>
								<path class="st14" d="M421.94,331.62c0,0,19.82-1.81,33.37-10.75l-0.36-7.87l-33.03,4.5L421.94,331.62z"/>
							</g>
							<path class="st6" d="M390.14,218.38c0,0,62.96,15.83,74.37,95.75c0,0-30.81,13.36-61.69,7.61l6.95-26.73L390.14,218.38z"/>
						</g>
						<g>
							<g>
								<path class="st2" d="M202.08,251.61l46.88,55.36l-14.35,40.4c0,0-35.63-49.54-51.64-87.83L202.08,251.61z"/>
								<g>
									<g>
										<g>
											<path class="st2" d="M203.62,253.61c0,0-16.46,9.3-20.65,5.94c-7.32-5.88-13.36-27.4-13.36-27.4s30.78-11.6,30.49-11.15
												C199.81,221.45,203.62,253.61,203.62,253.61z"/>
											<path class="st2" d="M203.62,253.61c-0.29-1.66,6.1-19.53,8.3-26.24c0.53-1.62-0.59-3.39-2.34-3.73l0,0
												c-1.14-0.22-2.95-0.08-3.81,1.56l-7.72,13.2L203.62,253.61z"/>
											<path class="st2" d="M203.05,234.28l-5.3-26.37c-0.31-1.75-2.08-2.96-3.84-2.63l0,0c-1.52,0.29-2.53,1.64-2.35,3.17
												l2.31,19.64L203.05,234.28z"/>
											<path class="st2" d="M192.51,224.56l-7.2-18.83c-0.6-1.65-2.45-2.56-4.09-2.01l0,0c-1.42,0.48-2.22,1.91-1.88,3.38
												l5.34,21.76L192.51,224.56z"/>
											<path class="st2" d="M184.78,230.11l-9.11-18.5c-0.84-1.72-2.92-2.51-4.62-1.77l0,0c-1.6,0.7-2.31,2.51-1.63,4.17
												l7.26,17.47L184.78,230.11z"/>
											<path class="st2" d="M169.61,232.15l-7.15-11.34c-0.59-1.33-0.05-2.83,1.25-3.42l0,0c1.24-0.57,2.77-0.12,3.57,1.04
												l9.4,13.04L169.61,232.15z"/>
										</g>
									</g>
									<path class="st25" d="M201.61,232.3c0,0-10.73-1.13-11.84,13.18"/>
								</g>
							</g>
							<g>
								<g>
									<path class="st2" d="M225.1,328.48c0,0,8.82,30.51,26.39,26.46c17.57-4.06,44.95-41.58,44.95-41.58l-6.13-64.07L241,309.97
										L225.1,328.48z"/>
									<path class="st14" d="M256.3,291.12c0,0,16.65,25.11,30.85,33.97l9.3-11.73l-35.86-27.74L256.3,291.12z"/>
								</g>
								<path class="st6" d="M329.14,217c0,0-48.88,11.02-74.93,67.83c0,0,15.74,23.71,40.97,34.25l16.89-20.69L329.14,217z"/>
							</g>
						</g>
						<g>
							<path class="st6" d="M329.14,216.82c-19.09,9.79-31.1,22.78-31.1,22.78l3.77,166.06h120.33l-0.39-165.2
								c0,0-15.17-14.84-31.61-22.08C376.18,212.24,342.71,209.86,329.14,216.82z"/>
							<path class="st24" d="M386.07,297.74L386.07,297.74c-9.24,0-16.74-7.49-16.74-16.74v-16.74h33.47V281
								C402.81,290.25,395.32,297.74,386.07,297.74z"/>
							<line class="st24" x1="421.94" y1="322.36" x2="423.5" y2="268.04"/>
							<line class="st24" x1="299.89" y1="313.31" x2="297.29" y2="266.22"/>
						</g>
					</g>
					<g>
						<path class="st18" d="M330.55,156.17l-5.02-24.81c-0.28-2.02-1.07-5.14-0.11-8.07c1.59-4.85,7.43-14.16,17.41-9.9l2.16,9.82
							c0,0-10.36,2.09-14.52,15.65L330.55,156.17z"/>
						<path class="st18" d="M342.1,118.51c-0.18,3.26-3.06,17.53-13.18,22.72C328.92,141.23,320.06,122.23,342.1,118.51z"/>
						<path class="st2" d="M377.59,212.25L377.59,212.25v-42.14h-38.84v42.14l-11.56,5.27c0,0,2.71,17.46,31.39,17.85
							c28.68,0.39,31.56-16.99,31.56-16.99L377.59,212.25z"/>
						<path class="st18" d="M342.83,113.39c0,0,7.13-18.81,29.11-8.81c13.31,6.05,17.03,14.16,18.62,19.91
							c0.53,1.91,0.74,4.92,0.59,6.71l-5.32,24.97l-20.76-34.55l-20.09,1.59L342.83,113.39z"/>
						<g>
							<path class="st14" d="M385.84,156.17c0,0,2.62-4.17,8.02-2.12c5.4,2.05,2.96,15.17-5.14,16.84c0,0-2.9,0.63-5.18-1.36
								C383.53,169.54,385.52,159.85,385.84,156.17z"/>
							<g>
								<g>
									<path class="st24" d="M392.79,158.68c0,0-4.52-1.51-7.74,5.15"/>
								</g>
							</g>
						</g>
						<g>
							<path class="st14" d="M330.55,156.17c0,0-2.62-4.17-8.02-2.12c-5.4,2.05-2.96,15.17,5.14,16.84c0,0,2.9,0.63,5.18-1.36
								C332.85,169.54,330.86,159.85,330.55,156.17z"/>
							<g>
								<g>
									<path class="st24" d="M323.6,158.68c0,0,4.52-1.51,7.74,5.15"/>
								</g>
							</g>
						</g>
						<path class="st2" d="M386.38,143.72c0,7.91-0.77,24.45-5.64,34.27c-4.56,9.22-12.11,14.18-22.01,14.48
							c-9.9,0.3-17.27-3.52-23.18-15.49c-5.91-11.97-5.63-33.12-5.63-33.12s0-28.25,27.92-28.25
							C387.25,115.62,386.38,143.72,386.38,143.72z"/>
						<path class="st18" d="M339.04,182.88c0,0,3.25,16.51,17.62,18.4c16.53,2.18,20.93-17.98,20.93-17.98s-7.31,9.15-18.86,9.17
							C345.85,192.49,339.04,182.88,339.04,182.88z"/>
						<g>
							<path class="st24" d="M356.16,155.45v6.54c0,0.28,0.05,0.55,0.15,0.8c0.39,0.97,1.5,1.43,2.51,1.16l2.17-0.58"/>
							<path class="st18" d="M347.92,152.33c0,1.4-1.14,2.54-2.54,2.54c-1.4,0-2.54-1.14-2.54-2.54c0-1.4,1.14-2.54,2.54-2.54
								C346.78,149.79,347.92,150.92,347.92,152.33z"/>
							<path class="st18" d="M371.75,152.33c0,1.4-1.14,2.54-2.54,2.54c-1.4,0-2.54-1.14-2.54-2.54c0-1.4,1.14-2.54,2.54-2.54
								C370.61,149.79,371.75,150.92,371.75,152.33z"/>
							<path class="st18" d="M362.7,139.68l17.09,4.41c0,0-0.78-4.79-7.77-6.54C365.03,135.82,362.7,139.68,362.7,139.68z"/>
							<path class="st18" d="M352.08,139.68l-17.09,4.41c0,0,0.78-4.79,7.77-6.54C349.75,135.82,352.08,139.68,352.08,139.68z"/>
							<path class="st24" d="M348.68,168.58c0,0,2.52,1.93,9.15,1.93c6.03,0,9.79-1.93,9.79-1.93"/>
							<g>
								<circle class="st26" cx="344.69" cy="153.07" r="10.8"/>
								<circle class="st26" cx="371.22" cy="153.07" r="10.8"/>
								<path class="st26" d="M355.49,153.07c0,0,2.56-2.39,4.93,0"/>
								<line class="st26" x1="333.89" y1="153.07" x2="330.27" y2="152.98"/>
								<line class="st26" x1="382.02" y1="153.07" x2="386.07" y2="153.01"/>
							</g>
						</g>
						<path class="st18" d="M339.04,119.15c0,0,5.19,14.74,28.59,14.28c15.9-0.31,19.7,11.2,19.7,11.2s-2.77-25.73-3.5-25.48
							c-0.73,0.24-24.2-6.26-24.2-6.26L339.04,119.15z"/>
					</g>
				</g>
			</g>
		</g>
	</g>
</g>
<g id="DESIGNED_BY_FREEPIK">
</g>
</svg>
